<?xml version="1.0" encoding="UTF-8" standalone="no"?>
<svg
   xmlns:dc="http://purl.org/dc/elements/1.1/"
   xmlns:cc="http://creativecommons.org/ns#"
   xmlns:rdf="http://www.w3.org/1999/02/22-rdf-syntax-ns#"
   xmlns:svg="http://www.w3.org/2000/svg"
   xmlns="http://www.w3.org/2000/svg"
   xmlns:sodipodi="http://sodipodi.sourceforge.net/DTD/sodipodi-0.dtd"
   xmlns:inkscape="http://www.inkscape.org/namespaces/inkscape"
   inkscape:version="1.0 (1.0+r73+1)"
   sodipodi:docname="contact-icon-1.svg"
   viewBox="0 0 306.375 306.33713"
   height="306.33713"
   width="306.375"
   id="svg204"
   version="1.1">
  <g
     transform="translate(339.08874)"
     id="g212"
     inkscape:label="Image"
     inkscape:groupmode="layer">
    <path
       id="path216"
       d="m -132.48981,305.21665 c -38.87172,-5.97138 -83.35458,-33.18082 -128.22393,-78.43247 -47.50707,-47.91185 -72.24104,-90.30416 -77.64309,-133.074869 -2.36075,-18.691215 1.10678,-37.327167 8.70743,-46.797348 1.09001,-1.358108 9.59922,6.432152 37.64841,34.467431 l 36.24011,36.222136 -1.27657,5.98541 c -3.52844,16.54376 1.28592,24.20559 38.83542,61.80472 37.55941,37.60908 45.29448,42.47395 61.90134,38.93204 l 5.98542,-1.27656 36.31146,36.32948 36.311471,36.32947 -3.41897,2.2402 c -11.00566,7.21117 -32.221031,10.21328 -51.378501,7.27036 z m 33.774961,-59.88443 -34.648531,-34.66777 14.93223,-14.93223 c 21.255821,-21.25582 17.06606,-22.45077 55.140921,15.72652 25.60325,25.67213 30.57649,31.27887 30.57649,34.4714 0,3.06665 -2.92052,6.77276 -14.92624,18.94125 -8.20944,8.32074 -15.26376,15.1286 -15.67628,15.1286 -0.41253,0 -16.34189,-15.60049 -35.39859,-34.66777 z M -278.72335,65.306355 -313.38041,30.612711 -297.9346,15.306356 C -285.44164,2.9261842 -281.75683,0 -278.66002,0 c 3.21357,0 8.75509,4.9130836 34.48753,30.576487 38.10868,38.006433 36.90682,33.910812 16.08149,54.800908 -8.01749,8.042432 -14.89182,14.622603 -15.27628,14.622603 -0.38447,0 -16.2947,-15.61214 -35.35607,-34.693643 z"
       style="stroke-width:1.33333" />
  </g>
</svg>
