<?xml version="1.0" encoding="UTF-8" standalone="no"?>
<svg
   xmlns:dc="http://purl.org/dc/elements/1.1/"
   xmlns:cc="http://creativecommons.org/ns#"
   xmlns:rdf="http://www.w3.org/1999/02/22-rdf-syntax-ns#"
   xmlns:svg="http://www.w3.org/2000/svg"
   xmlns="http://www.w3.org/2000/svg"
   xmlns:sodipodi="http://sodipodi.sourceforge.net/DTD/sodipodi-0.dtd"
   xmlns:inkscape="http://www.inkscape.org/namespaces/inkscape"
   inkscape:version="1.0 (1.0+r73+1)"
   sodipodi:docname="contact-icon-2.svg"
   viewBox="0 0 266.66666 226.27006"
   height="226.27007"
   width="266.66666"
   id="svg192"
   version="1.1">
  <g
     transform="translate(372.961)"
     id="g200"
     inkscape:label="Image"
     inkscape:groupmode="layer">
    <path
       id="path252"
       d="m -367.29434,225.7872 c -3.4841,-1.41333 -1.26505,-4.6102 11.57578,-16.67666 7.28334,-6.84414 29.17378,-27.95922 48.64542,-46.92242 l 35.40299,-34.47856 15.40284,8.94432 c 11.74095,6.8179 16.17657,8.75012 18.65737,8.12748 1.78999,-0.44926 10.21552,-5.09797 18.72339,-10.33048 l 15.46884,-9.51364 3.02785,3.19805 c 12.822,13.54277 84.09552,95.2445 84.09552,96.39975 0,1.0523 -35.11756,1.53022 -124.66666,1.6966 -68.56667,0.12747 -125.41667,-0.0727 -126.33334,-0.44444 z m 221.66667,-70.65148 c -19.8,-22.41576 -36,-41.44096 -36,-42.27824 0,-2.25383 72.78118,-46.609628 74.18156,-45.20925 1.6812,1.681192 0.84741,127.35733 -0.84823,127.85336 -0.73333,0.21452 -17.53333,-17.95012 -37.33333,-40.36587 z m -226.44444,34.64206 c -0.48889,-0.48888 -0.88889,-27.78888 -0.88889,-60.66667 0,-53.798054 0.21247,-59.777776 2.12401,-59.777776 1.1682,0 19.29149,10.30753 40.27397,22.905621 l 38.14997,22.905625 -38.60731,37.71906 c -21.23402,20.7455 -38.95731,37.73796 -39.38509,37.76106 -0.42777,0.0231 -1.17777,-0.35803 -1.66666,-0.84692 z m 65.68873,-110.319941 -65.91096,-39.20883 -0.37332,-16.811787 c -0.36332,-16.3615079 -0.2846,-16.900514 2.9394,-20.1245049 L -366.41555,0 h 126.78788 126.78788 l 3.27272,3.2727274 c 3.11026,3.1102671 3.27273,4.0651378 3.27273,19.2356786 v 15.962949 l -3.66667,1.840644 c -2.01666,1.012355 -31.7032,19.056301 -65.97005,40.097657 -34.26686,21.041354 -62.80694,38.257014 -63.42237,38.257014 -0.61544,0 -30.77892,-17.64398 -67.02995,-39.208831 z"
       style="stroke-width:1.33333" />
  </g>
</svg>
