<?xml version="1.0" encoding="UTF-8" standalone="no"?>
<svg
   xmlns:dc="http://purl.org/dc/elements/1.1/"
   xmlns:cc="http://creativecommons.org/ns#"
   xmlns:rdf="http://www.w3.org/1999/02/22-rdf-syntax-ns#"
   xmlns:svg="http://www.w3.org/2000/svg"
   xmlns="http://www.w3.org/2000/svg"
   xmlns:sodipodi="http://sodipodi.sourceforge.net/DTD/sodipodi-0.dtd"
   xmlns:inkscape="http://www.inkscape.org/namespaces/inkscape"
   inkscape:version="1.0 (1.0+r73+1)"
   sodipodi:docname="contact-icon-3.svg"
   viewBox="0 0 252.54859 331.2247"
   height="331.2247"
   width="252.54858"
   id="svg180"
   version="1.1">
  <g
     transform="translate(390.61766,2.0701685)"
     id="g188"
     inkscape:label="Image"
     inkscape:groupmode="layer">
    <path
       id="path288"
       d="m -298.38867,287.24413 c -64.4086,-81.7632 -71.99491,-91.79076 -77.50016,-102.43949 -18.75611,-36.27971 -19.63488,-77.42289 -2.42943,-113.743972 7.75977,-16.381019 15.40292,-26.902921 28.34971,-39.027453 48.55493,-45.471178 122.69541,-45.471178 171.25035,0 12.94678,12.124532 20.58993,22.646434 28.3497,39.027453 17.20523,36.320612 16.32678,77.460912 -2.42874,113.743972 -3.03262,5.86666 -12.771,19.96666 -21.64086,31.33333 -40.21344,51.5333 -88.73443,112.69827 -89.65268,113.0151 -0.55542,0.19164 -15.98946,-18.66739 -34.29789,-41.90894 z m 49.87875,-108.28483 c 10.71436,-3.33468 18.4894,-8.03696 25.04098,-15.1446 21.93643,-23.7982 21.81966,-57.78811 -0.27642,-80.460221 -12.93295,-13.270103 -32.40103,-19.854475 -49.42781,-16.717167 -33.82271,6.23208 -54.96158,38.806498 -46.43421,71.553858 8.15715,31.32564 40.97445,50.14348 71.09746,40.76813 z m -27.54671,-23.16369 c -6.18394,-1.98152 -15.56506,-10.65823 -18.84175,-17.42696 -3.93247,-8.12341 -3.77209,-20.70733 0.37749,-29.6185 6.77299,-14.544911 23.51794,-22.273341 39.12144,-18.056027 19.31942,5.221652 30.36567,29.589937 21.61107,47.674527 -3.47825,7.18509 -12.76058,15.47627 -19.63079,17.53463 -6.26514,1.87708 -16.5968,1.82794 -22.63746,-0.10774 z"
       style="stroke-width:1.33333" />
  </g>
</svg>
