<?xml version="1.0" encoding="UTF-8" standalone="no"?>
<!-- Created with Inkscape (http://www.inkscape.org/) -->

<svg
   xmlns:dc="http://purl.org/dc/elements/1.1/"
   xmlns:cc="http://creativecommons.org/ns#"
   xmlns:rdf="http://www.w3.org/1999/02/22-rdf-syntax-ns#"
   xmlns:svg="http://www.w3.org/2000/svg"
   xmlns="http://www.w3.org/2000/svg"
   xmlns:sodipodi="http://sodipodi.sourceforge.net/DTD/sodipodi-0.dtd"
   xmlns:inkscape="http://www.inkscape.org/namespaces/inkscape"
   version="1.1"
   id="svg1182"
   width="454.46597"
   height="681.15912"
   viewBox="0 0 454.46597 681.15912"
   sodipodi:docname="map-marker.svg"
   inkscape:version="0.92.4 (unknown)">
  <path
     style="fill:#ffbd57;stroke-width:1.33333337"
     d="M 136.11581,523.49245 C 86.307199,436.77578 41.075259,358.32578 35.600359,349.15912 24.087889,329.88369 18.536899,318.19174 12.050159,299.55582 -14.763091,222.52332 3.9859591,134.43139 60.174699,73.4439 135.49326,-8.3071566 257.95218,-23.708523 351.41328,36.81552 c 52.42896,33.952234 89.1348,89.69354 100.16275,152.10666 3.84048,21.73534 3.85491,54.90029 0.0332,76.38443 -5.18952,29.17361 -14.67111,53.8546 -31.7547,82.65892 -5.82598,9.82313 -51.34106,88.81025 -101.14457,175.52692 -49.80352,86.71667 -90.88512,157.66668 -91.29246,157.66668 -0.40733,0 -41.49309,-70.95001 -91.30169,-157.66668 z M 249.30666,309.64793 c 21.2242,-5.41174 41.32915,-21.04032 52.57434,-40.86872 9.28409,-16.37046 12.91433,-39.82031 9.02326,-58.28677 -6.71169,-31.85282 -32.51518,-58.64514 -63.49098,-65.92404 -4.76667,-1.12009 -13.76667,-2.03655 -20.00001,-2.03655 -23.81278,0 -42.3768,7.67758 -59.47617,24.59773 -18.11307,17.92321 -26.93892,40.39657 -25.4078,64.6962 3.44189,54.62493 53.80305,91.32947 106.77736,77.82215 z"
     id="path1192"
     inkscape:connector-curvature="0" />
</svg>
