<?xml version="1.0" encoding="UTF-8" standalone="no"?>
<svg
   xmlns:dc="http://purl.org/dc/elements/1.1/"
   xmlns:cc="http://creativecommons.org/ns#"
   xmlns:rdf="http://www.w3.org/1999/02/22-rdf-syntax-ns#"
   xmlns:svg="http://www.w3.org/2000/svg"
   xmlns="http://www.w3.org/2000/svg"
   xmlns:sodipodi="http://sodipodi.sourceforge.net/DTD/sodipodi-0.dtd"
   xmlns:inkscape="http://www.inkscape.org/namespaces/inkscape"
   inkscape:version="1.0 (1.0+r73+1)"
   sodipodi:docname="soc-icon-2.svg"
   viewBox="0 0 215.54455 215.04222"
   height="215.04222"
   width="215.54456"
   id="svg4654"
   version="1.1">
  <g
     transform="translate(349.6656,-8.4107141)"
     id="g4662"
     inkscape:label="Image"
     inkscape:groupmode="layer">
    <path
       id="path4706"
       d="m -241.10662,223.43166 c -2.99199,0.0601 -6.23199,-0.0116 -7.19999,-0.15921 -0.968,-0.14762 -3.41601,-0.44002 -5.44001,-0.64977 -2.024,-0.20975 -5.16151,-0.65133 -6.97225,-0.98128 -1.81074,-0.32997 -4.54674,-0.895 -6.08,-1.25564 -1.53326,-0.36065 -4.19175,-1.08893 -5.90775,-1.61841 -1.71599,-0.52948 -3.11999,-1.1025 -3.11999,-1.27337 0,-0.17088 -0.51749,-0.31069 -1.14996,-0.31069 -0.88084,0 -1.18913,-0.14978 -1.31732,-0.64 -0.13112,-0.5014 -0.43649,-0.64 -1.41005,-0.64 -1.02934,0 -1.24267,-0.10987 -1.24267,-0.64 0,-0.53106 -0.21334,-0.64 -1.25334,-0.64 -0.68933,0 -1.30133,-0.1132 -1.36,-0.25156 -0.0587,-0.13836 -0.58955,-0.59076 -1.17975,-1.00535 -0.81347,-0.57143 -1.13336,-0.65626 -1.32223,-0.35067 -0.18754,0.30345 -0.41849,0.23378 -0.93401,-0.28174 -0.41682,-0.41682 -1.27699,-0.75984 -2.19777,-0.87643 -0.8321,-0.10536 -1.6569,-0.36631 -1.8329,-0.5799 -0.176,-0.21358 -0.70593,-0.48441 -1.17763,-0.60182 -0.47169,-0.11742 -1.0734,-0.42927 -1.33714,-0.69301 -0.26374,-0.26374 -0.63813,-0.47952 -0.832,-0.47952 -0.19385,0 -1.68014,-0.80765 -3.30285,-1.79478 -1.62271,-0.98713 -4.31189,-2.74274 -5.97595,-3.90135 -1.66406,-1.15862 -4.44805,-3.25077 -6.18663,-4.64924 -1.73859,-1.39847 -4.82616,-4.14286 -6.86127,-6.09865 -2.0351,-1.95579 -5.06309,-5.13998 -6.72886,-7.07598 -1.66577,-1.936 -4.09224,-4.97804 -5.39214,-6.76008 -1.29991,-1.78205 -3.30388,-4.73405 -4.45327,-6.56 -1.14939,-1.82596 -3.2257,-5.55509 -4.61402,-8.28696 -1.38831,-2.73187 -3.26231,-6.81712 -4.16442,-9.07832 -0.90212,-2.2612 -2.20779,-6.00203 -2.90149,-8.31296 -0.69369,-2.31092 -1.61638,-5.78568 -2.05041,-7.72168 -0.43403,-1.936 -1.08174,-5.536 -1.43934,-8 -0.35761,-2.464 -0.81475,-6.964 -1.01588,-10 -0.27425,-4.13974 -0.27425,-6.90025 0,-11.03999 0.20113,-3.036 0.65747,-7.536 1.0141,-10 0.35662,-2.463999 1.08661,-6.423999 1.62218,-8.799999 0.53558,-2.376 1.74518,-6.644259 2.688,-9.48502 0.94281,-2.840762 2.52886,-7.016762 3.52453,-9.28 0.99568,-2.263238 2.53923,-5.482979 3.43012,-7.154979 0.89088,-1.672 2.56021,-4.551999 3.70963,-6.399999 1.14941,-1.848 3.0186,-4.656 4.15376,-6.24 1.13516,-1.584 3.39646,-4.464 5.02511,-6.4 1.62865,-1.936 4.88374,-5.402924 7.23352,-7.704275 2.34979,-2.301352 5.85635,-5.441367 7.79235,-6.977812 1.936,-1.536445 4.96,-3.768937 6.72,-4.961093 1.76,-1.192157 4.45387,-2.918106 5.98638,-3.835443 1.53251,-0.917337 5.13251,-2.800888 8,-4.185668 2.86749,-1.38478 6.79762,-3.106294 8.73362,-3.825586 1.936,-0.719293 5.20668,-1.803908 7.26818,-2.410257 2.0615,-0.606349 5.3735,-1.464632 7.36,-1.907296 1.9865,-0.442664 5.69981,-1.1285664 8.25181,-1.5242273 4.09941,-0.6355695 5.85169,-0.7195622 15.04001,-0.7209168 9.07422,-0.00134 10.98017,0.087163 14.95118,0.6942446 2.50316,0.3826778 6.24716,1.0756515 8.32,1.5399405 2.07285,0.464289 5.49681,1.345053 7.60881,1.957252 2.112,0.6122 5.856,1.908942 8.32,2.88165 2.464,0.972709 6.31914,2.684499 8.56697,3.80398 2.24784,1.11948 5.12784,2.63744 6.4,3.373244 1.27217,0.735803 4.10747,2.556521 6.30068,4.046039 2.19321,1.489517 5.36121,3.798769 7.04,5.131669 1.67879,1.332901 5.64752,5.024703 8.8194,8.204005 3.17188,3.179302 7.02398,7.412409 8.56022,9.406905 1.53624,1.994493 3.71486,5.018493 4.84136,6.72 1.12651,1.701504 3.02213,4.803318 4.21248,6.892921 1.19035,2.0896 2.9894,5.6176 3.99789,7.84 1.00848,2.222397 2.3415,5.408723 2.96226,7.080723 0.62076,1.672 1.62953,4.696 2.24172,6.719999 0.61218,2.024 1.49869,5.403466 1.97002,7.50992 0.47133,2.106458 1.13176,5.702192 1.46761,7.990519 0.33586,2.28833 0.78037,6.72087 0.98781,9.85008 0.28955,4.36783 0.28955,7.01112 0,11.37895 -0.20744,3.12922 -0.65195,7.56175 -0.98781,9.85008 -0.33585,2.28833 -0.99628,5.88407 -1.46761,7.99052 -0.47133,2.10646 -1.35784,5.48592 -1.97002,7.50992 -0.61219,2.024 -1.62212,5.048 -2.24429,6.72 -0.62217,1.672 -1.90885,4.76751 -2.85928,6.87892 -0.95044,2.1114 -2.61316,5.4234 -3.69494,7.36 -1.08178,1.93659 -2.88834,4.94476 -4.01457,6.6848 -1.12624,1.74005 -2.92867,4.33205 -4.00542,5.76 -1.07674,1.42796 -3.16688,4.00341 -4.64474,5.72324 -1.47786,1.71983 -3.86439,4.3129 -5.30338,5.76238 -1.439,1.44948 -3.91236,3.7679 -5.49636,5.15205 -1.584,1.38414 -4.47794,3.71795 -6.43097,5.18623 -1.95304,1.46829 -5.33704,3.78074 -7.52,5.13878 -2.18297,1.35804 -5.9052,3.45207 -8.27164,4.6534 -2.36644,1.20133 -6.47674,3.03671 -9.13399,4.07862 -2.65726,1.04191 -6.55308,2.3942 -8.65738,3.00509 -2.10431,0.6109 -5.48202,1.47624 -7.50602,1.923 -2.024,0.44675 -5.192,1.03779 -7.04,1.31342 -1.848,0.27563 -4.872,0.65822 -6.72,0.85019 -1.848,0.19197 -5.808,0.39818 -8.8,0.45825 z m -1.91999,-45.98038 c 12.36005,0.0232 24.55141,-0.10396 27.19999,-0.28378 2.64,-0.17924 6.23632,-0.61832 7.99182,-0.97574 1.75551,-0.35742 4.45435,-1.12408 5.99742,-1.70368 1.54308,-0.57961 3.98922,-1.75829 5.43586,-2.61931 1.69213,-1.00712 3.72593,-2.64975 5.70221,-4.60548 1.81184,-1.793 3.67986,-4.02447 4.55394,-5.44 0.81509,-1.32 1.93783,-3.47271 2.49499,-4.78381 0.55715,-1.3111 1.34623,-3.69744 1.75351,-5.30298 0.40728,-1.60554 0.9317,-4.42082 1.16538,-6.25618 0.32258,-2.5336 0.42487,-9.6546 0.42487,-29.57703 0,-20.181202 -0.10046,-27.052754 -0.43508,-29.759989 -0.2393,-1.936 -0.77036,-4.819414 -1.18015,-6.407587 -0.40978,-1.588175 -1.23274,-4.043916 -1.82879,-5.457202 -0.59604,-1.413287 -1.77616,-3.641872 -2.62247,-4.952413 -0.84632,-1.310538 -2.70757,-3.551616 -4.13613,-4.980173 -1.42856,-1.428556 -3.66964,-3.289814 -4.98017,-4.136127 -1.31054,-0.846314 -3.47054,-1.997143 -4.8,-2.557399 -1.32947,-0.560252 -3.20921,-1.24552 -4.17721,-1.522809 -0.968,-0.27729 -2.984,-0.73353 -4.48,-1.013869 -1.496,-0.280336 -5.096,-0.647782 -8,-0.816544 -2.904,-0.168762 -14.136,-0.306838 -24.96,-0.306838 -10.824,0 -22.056,0.138076 -24.96,0.306838 -2.904,0.168762 -6.504,0.536208 -7.99999,0.816544 -1.496,0.280339 -3.512,0.736579 -4.48,1.013869 -0.968,0.277289 -2.84775,0.962557 -4.17721,1.522809 -1.32946,0.560256 -3.48946,1.711085 -4.8,2.557399 -1.31054,0.846313 -3.55161,2.707571 -4.98017,4.136127 -1.42856,1.428557 -3.28981,3.669635 -4.13613,4.980173 -0.84631,1.310541 -1.99714,3.470541 -2.5574,4.8 -0.56025,1.329462 -1.24552,3.209203 -1.52281,4.177203 -0.27729,0.968 -0.73418,2.984 -1.01532,4.48 -0.28114,1.495999 -0.66445,5.455999 -0.85179,8.799999 -0.21102,3.766493 -0.28279,14.725209 -0.18862,28.799989 0.12486,18.6619 0.24456,23.35628 0.67018,26.28232 0.28499,1.95927 0.88406,4.82493 1.33126,6.36812 0.4472,1.5432 1.30057,3.86088 1.89636,5.1504 0.5958,1.28952 1.82823,3.42221 2.73872,4.73929 0.9105,1.31708 2.79428,3.48272 4.18617,4.81252 1.39189,1.32981 3.28582,2.89978 4.20873,3.48882 0.92292,0.58905 2.47003,1.4717 3.43803,1.96144 0.968,0.48974 2.97779,1.30238 4.4662,1.80585 1.48841,0.50348 3.93641,1.14619 5.44,1.42824 1.50359,0.28205 4.31779,0.61994 6.25379,0.75085 1.936,0.13092 13.6,0.25698 25.92001,0.28014 z m 3.51999,-11.29702 c -14.08,0.0451 -27.15217,-0.0425 -29.04927,-0.19465 -1.8971,-0.1522 -4.7051,-0.57463 -6.24,-0.93874 -1.5349,-0.36411 -3.98176,-1.2381 -5.43746,-1.9422 -2.02682,-0.98034 -3.23522,-1.86159 -5.15925,-3.7625 -1.98943,-1.9655 -2.78496,-3.04554 -3.82105,-5.18759 -0.71969,-1.48791 -1.59811,-3.92929 -1.95204,-5.42529 -0.35394,-1.496 -0.79109,-4.664 -0.97145,-7.04 -0.18035,-2.376 -0.325,-14.184 -0.32144,-26.23999 0.004,-12.056 0.14454,-23.695458 0.31327,-25.865461 0.16874,-2.170006 0.60297,-5.194006 0.96496,-6.72 0.362,-1.525997 1.24484,-3.987427 1.96187,-5.469849 1.01482,-2.098071 1.85074,-3.242352 3.77247,-5.164083 1.92173,-1.921728 3.06601,-2.757648 5.16408,-3.772467 1.48243,-0.717031 3.94386,-1.599872 5.46985,-1.961869 1.526,-0.361993 4.55,-0.796227 6.72,-0.96496 2.17001,-0.168733 13.95346,-0.306787 26.18547,-0.306787 12.23199,0 24.01545,0.138054 26.18546,0.306787 2.17,0.168733 5.194,0.602967 6.72,0.96496 1.52599,0.361997 3.98742,1.244838 5.46985,1.961869 2.09429,1.012992 3.24272,1.85111 5.15022,3.758611 1.88706,1.887059 2.76294,3.081584 3.78656,5.164083 0.7324,1.490041 1.61626,3.838256 1.96412,5.218252 0.34786,1.379994 0.79281,4.403994 0.98878,6.72 0.21631,2.556458 0.35886,12.823224 0.36282,26.130914 0.004,14.03593 -0.12872,23.56821 -0.36949,26.5025 -0.20681,2.52038 -0.6547,5.68838 -0.9953,7.04 -0.34061,1.35162 -1.21853,3.67662 -1.95093,5.16666 -1.0251,2.08552 -1.89109,3.26565 -3.76187,5.12653 -1.60334,1.59486 -3.19239,2.81004 -4.67023,3.57143 -1.232,0.63474 -2.96,1.38416 -3.84,1.66539 -0.88,0.28123 -2.824,0.75096 -4.32,1.04385 -2.37458,0.4649 -5.97098,0.54295 -28.32,0.6146 z m -1.44,-18.87457 c 3.83079,-0.0909 5.14228,-0.25565 7.52,-0.94489 1.584,-0.45916 4.19631,-1.49089 5.80512,-2.29274 1.60882,-0.80185 4.12792,-2.422 5.598,-3.60034 1.47008,-1.17834 3.64483,-3.35504 4.83278,-4.83711 1.18794,-1.48206 2.80335,-4.00117 3.58979,-5.59799 0.78643,-1.59683 1.82097,-4.19933 2.29897,-5.78333 0.79713,-2.64156 0.8695,-3.33038 0.87406,-8.32 0.004,-4.58276 -0.10259,-5.82703 -0.67767,-7.89613 -0.37546,-1.35087 -1.12665,-3.52265 -1.6693,-4.82616 -0.54265,-1.30351 -1.71872,-3.485165 -2.61349,-4.848118 -0.89476,-1.362957 -2.68022,-3.545239 -3.96768,-4.84952 -1.28746,-1.304282 -3.68403,-3.240458 -5.32571,-4.302611 -1.64168,-1.062154 -4.13687,-2.377312 -5.54487,-2.922576 -1.408,-0.545264 -3.856,-1.260282 -5.44,-1.588928 -1.6342,-0.339062 -4.21148,-0.599357 -5.95808,-0.601741 -1.69295,-0.0022 -4.33865,0.215619 -5.87935,0.484298 -1.54071,0.268675 -4.06793,0.964272 -5.61606,1.545773 -1.54813,0.5815 -4.06703,1.837673 -5.59756,2.791497 -1.53053,0.953827 -3.911,2.830957 -5.28993,4.171405 -1.44935,1.408889 -3.32686,3.704124 -4.44995,5.439999 -1.06854,1.651552 -2.38893,4.154822 -2.93419,5.562822 -0.54527,1.408 -1.26028,3.856 -1.58893,5.44 -0.36259,1.74759 -0.59754,4.20113 -0.59754,6.24 0,2.03461 0.23526,4.49604 0.5964,6.23999 0.32802,1.584 1.03263,4.0009 1.56579,5.37087 0.53316,1.36999 1.54767,3.45799 2.25446,4.64 0.70678,1.18203 2.08244,3.1102 3.057,4.28483 0.97456,1.17464 2.77649,2.94735 4.00428,3.93936 1.2278,0.99201 3.32309,2.42524 4.65621,3.18495 1.33312,0.75971 3.77842,1.83046 5.434,2.37944 1.65559,0.54898 3.77815,1.13514 4.71681,1.30258 0.93865,0.16743 3.79465,0.2549 6.34664,0.19437 z m -1.21575,-11.07746 c -1.70733,-0.0116 -3.89624,-0.23245 -4.86424,-0.49081 -0.968,-0.25837 -2.624,-0.87602 -3.68001,-1.37255 -1.056,-0.49654 -2.81303,-1.57864 -3.90451,-2.40467 -1.09149,-0.82603 -2.66036,-2.39491 -3.48639,-3.48639 -0.82603,-1.09149 -1.90815,-2.84852 -2.40469,-3.90452 -0.49655,-1.056 -1.14027,-2.85228 -1.43049,-3.99174 -0.39779,-1.56177 -0.4905,-2.97965 -0.37664,-5.76 0.11849,-2.89334 0.32457,-4.15321 0.95618,-5.84555 0.44283,-1.18651 1.29146,-2.97194 1.88585,-3.96762 0.59438,-0.99567 1.95927,-2.68889 3.03307,-3.7627 1.07381,-1.07381 2.76703,-2.438693 3.76271,-3.033077 0.99568,-0.594384 2.78111,-1.443014 3.96762,-1.885843 1.69234,-0.631616 2.95221,-0.837696 5.84555,-0.956185 2.78035,-0.11386 4.19823,-0.02115 5.76,0.37664 1.13946,0.29022 2.93574,0.933942 3.99174,1.430489 1.056,0.496547 2.81303,1.578659 3.90452,2.404691 1.09148,0.826035 2.66036,2.394905 3.48639,3.486385 0.82603,1.09149 1.90745,2.84852 2.40315,3.90452 0.4957,1.056 1.12817,2.784 1.4055,3.84 0.27733,1.056 0.51486,3.15218 0.52786,4.65818 0.013,1.50601 -0.14743,3.59401 -0.3565,4.64 -0.20906,1.046 -1.0211,3.23554 -1.80452,4.86566 -1.14156,2.37531 -1.89842,3.43786 -3.81156,5.35099 -1.91539,1.9154 -2.97287,2.66819 -5.35099,3.80921 -1.63012,0.78213 -3.72693,1.57818 -4.6596,1.769 -0.93266,0.19083 -3.09266,0.33748 -4.8,0.32589 z m 33.01863,-46.062055 c 0.68358,0.0016 1.80067,-0.163994 2.48242,-0.368253 0.68176,-0.204256 1.83402,-0.880221 2.56059,-1.502141 0.72658,-0.62192 1.58632,-1.7148 1.91055,-2.42862 0.34391,-0.75714 0.58951,-2.03112 0.58951,-3.057859 0,-1.041338 -0.24251,-2.282666 -0.5939,-3.04 -0.32664,-0.704 -1.07948,-1.740701 -1.67297,-2.303783 -0.59349,-0.563078 -1.61445,-1.247078 -2.2688,-1.52 -0.65435,-0.272918 -1.91897,-0.496217 -2.81028,-0.496217 -0.8913,0 -2.08393,0.194179 -2.65027,0.431507 -0.56635,0.237331 -1.5183,0.843446 -2.11545,1.346925 -0.59715,0.503478 -1.42375,1.641299 -1.83688,2.528489 -0.41313,0.887194 -0.74623,2.189079 -0.74022,2.893079 0.006,0.704 0.20373,1.820291 0.43938,2.480649 0.23566,0.660358 0.82449,1.719853 1.30851,2.354435 0.49014,0.642605 1.6055,1.491581 2.51748,1.916224 0.9006,0.419341 2.19675,0.763846 2.88033,0.765565 z"
       style="stroke-width:0.32" />
  </g>
</svg>
