<?xml version="1.0" encoding="UTF-8" standalone="no"?>
<svg
   xmlns:dc="http://purl.org/dc/elements/1.1/"
   xmlns:cc="http://creativecommons.org/ns#"
   xmlns:rdf="http://www.w3.org/1999/02/22-rdf-syntax-ns#"
   xmlns:svg="http://www.w3.org/2000/svg"
   xmlns="http://www.w3.org/2000/svg"
   xmlns:sodipodi="http://sodipodi.sourceforge.net/DTD/sodipodi-0.dtd"
   xmlns:inkscape="http://www.inkscape.org/namespaces/inkscape"
   inkscape:version="1.0 (1.0+r73+1)"
   sodipodi:docname="soc-icon-1.svg"
   viewBox="0 0 511.54373 511.00952"
   height="511.00952"
   width="511.54373"
   id="svg4666"
   version="1.1">
  <g
     transform="translate(890.41094,8.6540252)"
     id="g4674"
     inkscape:label="Image"
     inkscape:groupmode="layer">
    <path
       id="path4678"
       d="m -657.66641,501.71975 c -51.64215,-5.33785 -98.77984,-24.57162 -138.48483,-56.5065 -11.79343,-9.48551 -33.06514,-31.46653 -42.20296,-43.61022 -65.60872,-87.19069 -69.53609,-204.62112 -9.87863,-295.37621 40.15746,-61.090336 103.81785,-101.4242057 177.71084,-112.5937957 16.82804,-2.54371 49.18883,-3.06879 64.85558,-1.05233 41.48676,5.33973 79.16086,19.1209097 112.05116,40.9882897 58.4769,38.87877 97.7584,98.283586 110.5334,167.157836 10.2135,55.06381 1.7294,112.5503 -23.9878,162.5365 -13.6655,26.56156 -27.8864,45.7157 -49.7277,66.97839 -21.0236,20.46664 -38.872,33.03131 -65.3691,46.01754 -24.9273,12.21694 -48.1829,19.54978 -74.6914,23.55138 -15.1821,2.29182 -47.33872,3.30139 -60.80856,1.90912 z m 176.64156,-150.22229 c 11.4716,-6.24365 2.8555,-20.9983 -35.4253,-60.66398 -10.2939,-10.66633 -19.2628,-20.34133 -19.9308,-21.5 -2.8055,-4.86606 -1.7385,-7.17334 14.5564,-31.47788 17.0631,-25.45028 23.7622,-36.39775 30.5782,-49.97022 5.7882,-11.5256 6.7947,-15.34482 5.2708,-19.99932 -1.7618,-5.38079 -4.738,-6.04401 -27.1909,-6.05925 -22.528,-0.0153 -27.0011,0.65353 -30.4731,4.55627 -1.3914,1.56406 -8.5938,12.87922 -16.0054,25.14482 -16.2661,26.91931 -37.5163,54.9278 -45.83787,60.41591 -3.92481,2.58842 -7.03971,2.29163 -8.20834,-0.78209 -0.57731,-1.51843 -0.97525,-19.65318 -0.97525,-44.4433 v -41.87819 l -2.22251,-1.55671 c -1.91247,-1.33955 -7.28755,-1.5567 -38.53211,-1.5567 -42.23909,0 -43.24538,0.16083 -43.24538,6.91151 0,3.29851 0.79691,4.95559 4.47299,9.30103 2.46014,2.9081 5.72264,7.31246 7.25,9.78746 l 2.77701,4.5 0.28564,36.25982 0.28563,36.25981 -2.46335,2.46336 c -2.16517,2.16517 -2.83313,2.33446 -5.518,1.39851 -4.59329,-1.60123 -17.26104,-15.72156 -26.13109,-29.12748 -9.3658,-14.15519 -16.29234,-27.88731 -26.35713,-52.25402 -4.08925,-9.9 -8.7603,-19.575 -10.38011,-21.5 l -2.94511,-3.5 -22.38824,-0.32817 c -26.52603,-0.38883 -31.94952,0.1159 -35.67087,3.31966 -6.25207,5.38249 -2.19964,19.72056 15.26468,54.00851 21.09732,41.42068 37.06526,64.78929 60.13982,88.01291 32.58195,32.79243 62.76875,46.40603 100.34674,45.25424 15.15589,-0.46454 20.24747,-1.78977 23.43588,-6.09986 1.96498,-2.65626 2.07815,-3.90209 1.81687,-20 -0.4241,-26.12956 0.29558,-28.67577 8.10007,-28.65752 9.81403,0.0229 21.18633,8.18112 45.37583,32.55119 10.0084,10.0832 19.5827,19.04959 21.2762,19.92531 5.0442,2.60848 13.3863,3.3645 35.0265,3.17436 17.2154,-0.15127 21.0034,-0.45409 23.6416,-1.88999 z"/>
  </g>
</svg>
