<svg height="488pt" viewBox="0 0 488 488" width="488pt" xmlns="http://www.w3.org/2000/svg"><g fill="#f0bc5e"><path d="m312.03125 146.238281-20.015625-16-17.207031 13.761719h-18.808594v-136h112v136h-18.816406l-17.167969-13.753906zm0 0"/><path d="m349.191406 272-17.207031 13.761719-20.015625-16-19.992188 15.992187-17.160156-13.753906h-18.816406v64h8c13.257812 0 24 10.742188 24 24h80v-88zm0 0"/><path d="m456 256h-128v-80h128zm0 0"/></g><path d="m488 0h-352v304.136719c-.921875-.023438-1.824219-.136719-2.742188-.136719-20.824218 0-40.785156 6.398438-57.722656 18.496094l-32.183594 22.992187 9.296876 13.015625 32.183593-22.992187c23.449219-16.742188 54.785157-20.128907 81.238281-8.785157l21.539063 9.234376c12.4375 5.335937 25.597656 8.039062 39.132813 8.039062h37.257812c8.824219 0 16 7.175781 16 16s-7.175781 16-16 16h-136v16h136c17.648438 0 32-14.351562 32-32h84.6875l-42.910156 42.910156c-13.601563 13.59375-31.679688 21.089844-50.914063 21.089844h-157.222656c-18.457031 0-36.144531 5.664062-51.152344 16.390625l-35.144531 25.105469 9.296875 13.015625 35.144531-25.105469c12.285156-8.773438 26.75-13.40625 41.855469-13.40625h157.214844c23.503906 0 45.609375-9.160156 62.222656-25.777344l48.289063-48.285156c1.808593-1.800781 3.335937-3.816406 4.710937-5.9375h85.921875zm-16 16v48h-320v-48zm-180.449219 328c-5.550781-9.519531-15.757812-16-27.550781-16h-37.257812c-11.351563 0-22.398438-2.265625-32.820313-6.734375l-21.539063-9.234375c-6.597656-2.832031-13.421874-4.863281-20.382812-6.199219v-225.832031h320v264zm0 0"/><path d="m360 208h64v16h-64zm0 0"/><path d="m56 488h-56v-160h56zm0 0" fill="#f0bc5e"/></svg>