<svg height="496pt" viewBox="0 0 496 496" width="496pt" xmlns="http://www.w3.org/2000/svg"><g fill="#f0bc5e"><path d="m56 344h64v32h-64zm0 0"/><path d="m56 456h64v32h-64zm0 0"/><path d="m216 456h64v32h-64zm0 0"/><path d="m216 344h64v32h-64zm0 0"/><path d="m136 200h64v32h-64zm0 0"/><path d="m136 312h64v32h-64zm0 0"/></g><path d="m19.878906 125.367188c17.632813 7.058593 36.210938 10.632812 55.199219 10.632812h49.722656v-16h-49.722656c-16.949219 0-33.519531-3.191406-49.253906-9.488281-5.96875-2.382813-9.824219-8.078125-9.824219-14.511719s3.855469-12.128906 9.832031-14.511719c15.726563-6.296875 32.304688-9.488281 49.246094-9.488281h212.921875v5.527344c-18.679688 26.640625-49.039062 42.472656-81.6875 42.472656h-22.3125v16h22.3125c38.808594 0 74.824219-19.28125 96.34375-51.558594l1.34375-2.015625v-26.425781h-16v-56h-37.273438l-24 56h-37.78125l24-48h-39.371093l-72 48h-26.496094c-18.988281 0-37.566406 3.574219-55.199219 10.632812-12.070312 4.832032-19.878906 16.359376-19.878906 29.367188s7.808594 24.535156 19.878906 29.367188zm241.394532-109.367188h10.726562v40h-27.871094zm-82.847657 8h8.628907l-16 32h-40.628907zm0 0"/><path d="m312 336h-57.472656c.898437-2.511719 1.472656-5.183594 1.472656-8v-112c0-13.230469-10.769531-24-24-24h-128c-13.230469 0-24 10.769531-24 24v112c0 2.816406.574219 5.488281 1.472656 8h-57.472656c-13.230469 0-24 10.769531-24 24v112c0 13.230469 10.769531 24 24 24h128c6.167969 0 11.742188-2.40625 16-6.238281 4.257812 3.839843 9.832031 6.238281 16 6.238281h128c13.230469 0 24-10.769531 24-24v-112c0-13.230469-10.769531-24-24-24zm-216-8v-112c0-4.40625 3.59375-8 8-8h128c4.40625 0 8 3.59375 8 8v112c0 4.40625-3.59375 8-8 8h-128c-4.40625 0-8-3.59375-8-8zm56 152h-128c-4.40625 0-8-3.59375-8-8v-112c0-4.40625 3.59375-8 8-8h128c4.40625 0 8 3.59375 8 8v112c0 4.40625-3.59375 8-8 8zm168-8c0 4.40625-3.59375 8-8 8h-128c-4.40625 0-8-3.59375-8-8v-112c0-4.40625 3.59375-8 8-8h128c4.40625 0 8 3.59375 8 8zm0 0"/><path d="m465.703125 178.175781-32.625-8.152343c18.746094-9.398438 30.921875-28.71875 30.921875-50.023438v-13.992188c0-31.070312-24.351562-57.085937-54.289062-57.984374-15.238282-.542969-29.75 5.144531-40.710938 15.785156s-17 24.910156-17 40.191406v16c0 21.304688 12.175781 40.625 30.921875 50.023438l-32.625 8.152343c-17.839844 4.464844-30.296875 20.425781-30.296875 38.808594v79.015625c0 13.230469 10.769531 24 24 24h8v176h112v-176h8c13.230469 0 24-10.769531 24-24v-79.015625c0-18.382813-12.457031-34.34375-30.296875-38.808594zm-97.703125-58.175781v-16c0-10.910156 4.3125-21.105469 12.144531-28.703125 7.832031-7.601563 18.054688-11.5625 29.09375-11.273437 21.371094.640624 38.761719 19.480468 38.761719 41.984374v13.992188c0 16.878906-10.71875 32.015625-26.671875 37.664062l-5.328125 1.894532v16.441406c0 4.40625-3.59375 8-8 8s-8-3.59375-8-8v-16.441406l-5.328125-1.886719c-15.953125-5.65625-26.671875-20.792969-26.671875-37.671875zm80 360h-32v-168h-16v168h-32v-184h80zm32-184c0 4.40625-3.59375 8-8 8h-8v-80h-16v56h-80v-56h-16v80h-8c-4.40625 0-8-3.59375-8-8v-79.015625c0-11.03125 7.480469-20.609375 18.175781-23.289063l31.921875-7.976562c3.742188 8.394531 12.132813 14.28125 21.902344 14.28125s18.160156-5.886719 21.902344-14.28125l31.921875 7.976562c10.695312 2.679688 18.175781 12.257813 18.175781 23.289063zm0 0"/><path d="m212.136719 176h-38.800781l-69.335938-52v-20h77.273438zm0 0" fill="#f0bc5e"/></svg>